<svg xmlns="http://www.w3.org/2000/svg" xmlns:xlink="http://www.w3.org/1999/xlink" width="1366" zoomAndPan="magnify" viewBox="0 0 1024.5 576" height="768" preserveAspectRatio="xMidYMid meet" version="1.0"><defs><filter x="0%" y="0%" width="100%" height="100%" id="378a44bc34"><feColorMatrix values="0 0 0 0 1 0 0 0 0 1 0 0 0 0 1 0 0 0 1 0" color-interpolation-filters="sRGB"/></filter><clipPath id="f30cdcf156"><path d="M 529 0.140625 L 1024 0.140625 L 1024 426 L 529 426 Z M 529 0.140625 " clip-rule="nonzero"/></clipPath><mask id="ba9d3d762c"><g filter="url(#378a44bc34)"><rect x="-102.45" width="1229.4" fill="#000000" y="-57.6" height="691.2" fill-opacity="0.34"/></g></mask><clipPath id="278339b16b"><path d="M 141 0.140625 L 481 0.140625 L 481 318 L 141 318 Z M 141 0.140625 " clip-rule="nonzero"/></clipPath><clipPath id="6576fac309"><path d="M 48.289062 91.449219 L 315.007812 -125.90625 L 547.027344 158.8125 L 280.3125 376.164062 Z M 48.289062 91.449219 " clip-rule="nonzero"/></clipPath><clipPath id="3759a9c7cd"><path d="M 465.535156 60.480469 C 491.507812 107.390625 476.558594 158.375 476.558594 158.375 C 461.605469 209.363281 428.519531 250.621094 428.519531 250.621094 C 395.429688 291.882812 343.929688 311.386719 343.929688 311.386719 C 292.429688 330.890625 247.640625 299.316406 247.640625 299.316406 C 202.847656 267.742188 166.195312 233.625 166.195312 233.625 C 129.542969 199.503906 144.855469 152.304688 144.855469 152.304688 C 160.171875 105.109375 153.304688 47.394531 153.304688 47.394531 C 146.4375 -10.316406 200.117188 -25.472656 200.117188 -25.472656 C 253.800781 -40.628906 295.558594 -16.113281 295.558594 -16.113281 C 337.320312 8.398438 388.441406 10.984375 388.441406 10.984375 C 439.5625 13.574219 465.535156 60.480469 465.535156 60.480469 Z M 465.535156 60.480469 " clip-rule="nonzero"/></clipPath><clipPath id="a4147f8e50"><rect x="0" width="495" y="0" height="426"/></clipPath><clipPath id="172cdda3af"><path d="M 0 0.140625 L 216 0.140625 L 216 299.589844 L 0 299.589844 Z M 0 0.140625 " clip-rule="nonzero"/></clipPath><clipPath id="68c8ba6289"><path d="M 195.464844 165.375 C 174.296875 192.398438 172.046875 232.480469 172.046875 232.480469 C 169.792969 272.566406 136.015625 291.480469 136.015625 291.480469 C 102.234375 310.398438 68.007812 288.328125 68.007812 288.328125 C 33.777344 266.261719 1.347656 260.855469 1.347656 260.855469 C -31.078125 255.453125 -36.035156 221.671875 -36.035156 221.671875 C -40.988281 187.894531 -63.058594 163.121094 -63.058594 163.121094 C -85.125 138.351562 -77.019531 106.824219 -77.019531 106.824219 C -68.910156 75.296875 -40.539062 59.984375 -40.539062 59.984375 C -12.164062 44.671875 9.457031 23.050781 9.457031 23.050781 C 31.074219 1.433594 66.203125 -14.78125 66.203125 -14.78125 C 101.335938 -30.996094 132.410156 -9.375 132.410156 -9.375 C 163.488281 12.242188 189.160156 38.363281 189.160156 38.363281 C 214.832031 64.488281 215.734375 101.417969 215.734375 101.417969 C 216.632812 138.351562 195.464844 165.375 195.464844 165.375 Z M 195.464844 165.375 " clip-rule="nonzero"/></clipPath><clipPath id="3bf8ba36c6"><path d="M 493 0.140625 L 888 0.140625 L 888 371 L 493 371 Z M 493 0.140625 " clip-rule="nonzero"/></clipPath><mask id="f6a496fabe"><g filter="url(#378a44bc34)"><rect x="-102.45" width="1229.4" fill="#000000" y="-57.6" height="691.2" fill-opacity="0.23"/></g></mask><clipPath id="79e459cfca"><path d="M 48 35 L 324 35 L 324 286 L 48 286 Z M 48 35 " clip-rule="nonzero"/></clipPath><clipPath id="02b7fb03b8"><path d="M 0.367188 101.023438 L 270.15625 -22.820312 L 393.996094 246.96875 L 124.207031 370.8125 Z M 0.367188 101.023438 " clip-rule="nonzero"/></clipPath><clipPath id="3cf1d54527"><path d="M 0.367188 101.023438 L 270.15625 -22.820312 L 393.996094 246.96875 L 124.207031 370.8125 Z M 0.367188 101.023438 " clip-rule="nonzero"/></clipPath><clipPath id="49d47dbd98"><path d="M 0.367188 101.023438 L 270.15625 -22.820312 L 393.996094 246.96875 L 124.207031 370.8125 Z M 0.367188 101.023438 " clip-rule="nonzero"/></clipPath><clipPath id="2718ab2906"><rect x="0" width="395" y="0" height="371"/></clipPath></defs><g clip-path="url(#f30cdcf156)"><g mask="url(#ba9d3d762c)"><g transform="matrix(1, 0, 0, 1, 529, 0.000000000000055289)"><g clip-path="url(#a4147f8e50)"><g clip-path="url(#278339b16b)"><g clip-path="url(#6576fac309)"><g clip-path="url(#3759a9c7cd)"><path fill="#5e7ce2" d="M 1.046875 98.632812 L 328.308594 -168.058594 L 595 159.203125 L 267.738281 425.894531 Z M 1.046875 98.632812 " fill-opacity="1" fill-rule="nonzero"/></g></g></g></g></g></g></g><g clip-path="url(#172cdda3af)"><g clip-path="url(#68c8ba6289)"><path fill="#f5f7fd" d="M -117.554688 -41.804688 L 242.757812 -41.804688 L 242.757812 318.503906 L -117.554688 318.503906 Z M -117.554688 -41.804688 " fill-opacity="1" fill-rule="nonzero"/></g></g><g clip-path="url(#3bf8ba36c6)"><g mask="url(#f6a496fabe)"><g transform="matrix(1, 0, 0, 1, 493, 0.000000000000055289)"><g clip-path="url(#2718ab2906)"><g clip-path="url(#79e459cfca)"><g clip-path="url(#02b7fb03b8)"><g clip-path="url(#3cf1d54527)"><g clip-path="url(#49d47dbd98)"><path stroke-linecap="butt" transform="matrix(0.634797, -0.291394, 0.291394, 0.634797, 0.365895, 101.023784)" fill="none" stroke-linejoin="miter" d="M 375.999326 240.002033 C 364.997621 280.001932 344.502629 318.000888 344.502629 318.000888 C 324.000221 356.002594 282.999823 371.001844 282.999823 371.001844 C 241.999426 386.001095 204.498967 366.497969 204.498967 366.497969 C 167.001257 347.002259 135.002502 333.999792 135.002502 333.999792 C 103.001413 321.002408 66.998249 300.998959 66.998249 300.998959 C 31.000167 280.997844 41.497368 240.501758 41.497368 240.501758 C 51.996903 200.00059 36.500586 156.999803 36.500586 156.999803 C 20.999187 113.996682 69.500754 105.499037 69.500754 105.499037 C 118.002321 97.001392 138.997636 60.499731 138.997636 60.499731 C 159.998034 24.000402 201.002015 19.999172 201.002015 19.999172 C 241.998581 16.000691 270.000051 47.001122 270.000051 47.001122 C 298.00152 78.001554 307.001077 110.998916 307.001077 110.998916 C 315.998301 144.00136 351.499666 172.001747 351.499666 172.001747 C 387.001031 200.002135 375.999326 240.002033 375.999326 240.002033 Z M 375.999326 240.002033 " stroke="#5e17eb" stroke-width="3" stroke-opacity="1" stroke-miterlimit="4"/></g></g></g></g></g></g></g></g></svg>