<svg xmlns="http://www.w3.org/2000/svg" xmlns:xlink="http://www.w3.org/1999/xlink" width="1366" zoomAndPan="magnify" viewBox="0 0 1024.5 576" height="768" preserveAspectRatio="xMidYMid meet" version="1.0"><defs><filter x="0%" y="0%" width="100%" height="100%" id="78f7bfd387"><feColorMatrix values="0 0 0 0 1 0 0 0 0 1 0 0 0 0 1 0 0 0 1 0" color-interpolation-filters="sRGB"/></filter><clipPath id="0da73b76ca"><path d="M 0 0.140625 L 1024 0.140625 L 1024 575.859375 L 0 575.859375 Z M 0 0.140625 " clip-rule="nonzero"/></clipPath><clipPath id="8852036182"><path d="M 578 0.140625 L 1024 0.140625 L 1024 575.859375 L 578 575.859375 Z M 578 0.140625 " clip-rule="nonzero"/></clipPath><mask id="aca9a46197"><g filter="url(#78f7bfd387)"><rect x="-102.45" width="1229.4" fill="#000000" y="-57.6" height="691.2" fill-opacity="0.07"/></g></mask><clipPath id="9ccfcff804"><path d="M 127 113 L 446 113 L 446 564 L 127 564 Z M 127 113 " clip-rule="nonzero"/></clipPath><clipPath id="c26d34236d"><path d="M 230.472656 38.480469 L 646.460938 222.253906 L 466.574219 629.445312 L 50.582031 445.671875 Z M 230.472656 38.480469 " clip-rule="nonzero"/></clipPath><clipPath id="af3eaf9a24"><path d="M 520.105469 455.574219 C 465.164062 496.644531 400.050781 543.730469 400.050781 543.730469 C 334.9375 590.820312 274.347656 539.269531 274.347656 539.269531 C 213.757812 487.71875 170.382812 429.5 170.382812 429.5 C 127.003906 371.285156 127.949219 294.347656 127.949219 294.347656 C 128.894531 217.410156 200.539062 191.230469 200.539062 191.230469 C 272.1875 165.054688 328.882812 128.519531 328.882812 128.519531 C 385.578125 91.980469 439.519531 133.085938 439.519531 133.085938 C 493.460938 174.1875 544.070312 222.832031 544.070312 222.832031 C 594.675781 271.472656 584.863281 342.992188 584.863281 342.992188 C 575.046875 414.507812 520.105469 455.574219 520.105469 455.574219 Z M 520.105469 455.574219 " clip-rule="nonzero"/></clipPath><clipPath id="cd91c9bb04"><rect x="0" width="446" y="0" height="576"/></clipPath><mask id="7b1ea49362"><g filter="url(#78f7bfd387)"><rect x="-102.45" width="1229.4" fill="#000000" y="-57.6" height="691.2" fill-opacity="0.07"/></g></mask><clipPath id="fd8e6da210"><path d="M 0 0.410156 L 337 0.410156 L 337 384.945312 L 0 384.945312 Z M 0 0.410156 " clip-rule="nonzero"/></clipPath><clipPath id="50c6ddea5a"><rect x="0" width="338" y="0" height="385"/></clipPath></defs><g clip-path="url(#0da73b76ca)"><path fill="#ffffff" d="M 0 0.140625 L 1024 0.140625 L 1024 575.859375 L 0 575.859375 Z M 0 0.140625 " fill-opacity="1" fill-rule="nonzero"/><path fill="#ffffff" d="M 0 0.140625 L 1024 0.140625 L 1024 575.859375 L 0 575.859375 Z M 0 0.140625 " fill-opacity="1" fill-rule="nonzero"/></g><g clip-path="url(#8852036182)"><g mask="url(#aca9a46197)"><g transform="matrix(1, 0, 0, 1, 578, 0.000000000000055289)"><g clip-path="url(#cd91c9bb04)"><g clip-path="url(#9ccfcff804)"><g clip-path="url(#c26d34236d)"><g clip-path="url(#af3eaf9a24)"><path fill="#5e7ce2" d="M 222.339844 -41.71875 L 725.050781 180.367188 L 502.964844 683.074219 L 0.257812 460.992188 Z M 222.339844 -41.71875 " fill-opacity="1" fill-rule="nonzero"/></g></g></g></g></g></g></g><g mask="url(#7b1ea49362)"><g transform="matrix(1, 0, 0, 1, 0, 17)"><g clip-path="url(#50c6ddea5a)"><g clip-path="url(#fd8e6da210)"><path fill="#5e7ce2" d="M -135.042969 136.605469 C -160.878906 108.890625 -153.292969 64.144531 -120.011719 46.03125 C -75.59375 21.894531 15.671875 -16.859375 108.429688 9.332031 C 238.054688 45.933594 171.511719 139.097656 282.976562 195.660156 C 394.4375 252.222656 324.566406 413.601562 148.21875 380.324219 C -28.125 347.050781 -26.464844 198.988281 -96.335938 164.050781 C -113.804688 155.316406 -126.28125 146.003906 -135.042969 136.605469 Z M -135.042969 136.605469 " fill-opacity="1" fill-rule="nonzero"/></g></g></g></g></svg>