<svg xmlns="http://www.w3.org/2000/svg" xmlns:xlink="http://www.w3.org/1999/xlink" width="1366" zoomAndPan="magnify" viewBox="0 0 1024.5 576" height="768" preserveAspectRatio="xMidYMid meet" version="1.0"><defs><filter x="0%" y="0%" width="100%" height="100%" id="c13b03494c"><feColorMatrix values="0 0 0 0 1 0 0 0 0 1 0 0 0 0 1 0 0 0 1 0" color-interpolation-filters="sRGB"/></filter><clipPath id="15ea7e6268"><path d="M 0 0.140625 L 1024 0.140625 L 1024 272 L 0 272 Z M 0 0.140625 " clip-rule="nonzero"/></clipPath><mask id="4209261513"><g filter="url(#c13b03494c)"><rect x="-102.45" width="1229.4" fill="#000000" y="-57.6" height="691.2" fill-opacity="0.07"/></g></mask><clipPath id="61c8a85012"><path d="M 0 0.140625 L 1024 0.140625 L 1024 271.929688 L 0 271.929688 Z M 0 0.140625 " clip-rule="nonzero"/></clipPath><clipPath id="e5133b8101"><rect x="0" width="1024" y="0" height="272"/></clipPath></defs><g clip-path="url(#15ea7e6268)"><g mask="url(#4209261513)"><g transform="matrix(1, 0, 0, 1, 0, 0.000000000000055289)"><g clip-path="url(#e5133b8101)"><g clip-path="url(#61c8a85012)"><path fill="#5e7ce2" d="M 0 93.292969 C 56.890625 171.769531 113.777344 250.242188 170.667969 267.292969 C 227.554688 284.347656 284.445312 239.980469 341.332031 208.496094 C 398.222656 177.007812 455.109375 158.402344 512 152.09375 C 568.890625 145.789062 625.777344 151.78125 682.667969 165.894531 C 739.554688 180.007812 796.445312 202.242188 853.332031 216.292969 C 910.222656 230.347656 967.113281 236.222656 1024 242.09375 L 1024 -216.304688 L 0 -216.304688 Z M 0 93.292969 " fill-opacity="1" fill-rule="nonzero"/></g></g></g></g></g></svg>